<?xml version="1.0" encoding="UTF-8"?>
<!DOCTYPE svg PUBLIC "-//W3C//DTD SVG 1.1//EN" "http://www.w3.org/Graphics/SVG/1.1/DTD/svg11.dtd">
<!-- Creator: CorelDRAW -->
<svg xmlns="http://www.w3.org/2000/svg" xml:space="preserve" width="661.458mm" height="190.478mm" version="1.1" style="shape-rendering:geometricPrecision; text-rendering:geometricPrecision; image-rendering:optimizeQuality; fill-rule:evenodd; clip-rule:evenodd"
viewBox="0 0 66145.8 19047.8"
 xmlns:xlink="http://www.w3.org/1999/xlink"
 xmlns:xodm="http://www.corel.com/coreldraw/odm/2003">
 <defs>
  <style type="text/css">
   <![CDATA[
    .fil1 {fill:#5B5C5E}
    .fil2 {fill:#C23C40}
    .fil0 {fill:white}
   ]]>
  </style>
 </defs>
 <g id="Camada_x0020_1">
  <metadata id="CorelCorpID_0Corel-Layer"/>
  <polygon class="fil0" points="-0.07,-0.01 66145.87,-0.01 66145.87,19047.8 -0.07,19047.81 "/>
  <path class="fil1" d="M22083.94 9458.7l3037.29 0c1228.85,0 2145.77,622.83 2145.77,1947.08 0,960.5 -424.14,1505.44 -1159.53,1790.94l0 17.5c873.68,207.61 1332.48,752.55 1332.48,1687.31 0,1834.52 -1393.22,2215.09 -2569.91,2215.09l-2786.1 0 0 -7657.92zm1765.21 6212.88l519.2 0c640.33,0 1306.4,-112.56 1306.4,-891.53 0,-839.02 -683.57,-908.34 -1288.9,-908.34l-536.36 0.01 0 1799.87 -0.34 -0.01zm0 -3184.16l484.54 0c579.59,0 1176.69,-164.37 1176.69,-813.29 0,-700.73 -571.36,-761.47 -1150.95,-761.47l-510.28 0 0 1574.75 0 0.01zm7622.92 502.04c-190.45,-69.32 -380.56,-69.32 -579.59,-69.32 -787.21,0 -1237.09,666.07 -1237.09,1782.36l0 2414.12 -1695.89 0 0 -5710.84 1549.01 0 0 1055.56 17.16 0c294.09,-726.81 718.23,-1194.19 1453.62,-1194.19 199.03,0 406.64,35 579.59,69.32l-86.82 1652.99 0.01 0zm3348.54 4127.16l0 -752.89c-311.24,579.59 -865.1,891.53 -1505.44,891.53 -969.08,0 -1834.52,-562.44 -1834.52,-1808.44 0,-1739.13 1626.57,-1947.08 2535.25,-1947.08 268.35,0 571.36,34.66 787.55,77.9 -8.58,-778.97 -510.28,-986.24 -1124.87,-986.24 -544.94,0 -1081.29,121.13 -1557.6,423.8l-26.08 -1341.06c606.02,-285.51 1228.85,-406.99 1955.66,-406.99 1254.59,0 2344.8,631.75 2344.8,2379.8l0 2120.03c0,450.22 17.5,899.76 95.05,1349.99l-1669.8 0 0 -0.34 0 -0.01zm-1064.14 -1220.27c467.04,0 839.02,-199.03 1064.13,-596.75l0 -752.89c-243.63,-19.78 -490.19,-33.87 -735.58,-35.04 -571.02,0 -1029.82,207.61 -1029.82,761.47 0,389.48 303.01,622.83 701.07,622.83l0.2 0.38zm8687.4 1220.27l-1574.75 0 0 -856.52 -17.51 0c-328.75,631.75 -968.74,994.82 -1687.31,994.82 -1470.78,0 -2249.75,-1410.38 -2249.75,-3106.27 0,-1393.22 744.31,-2881.5 2102.87,-2881.5 683.23,0 1254.24,216.53 1695.55,874.02l17.51 0 0 -2708.21 1713.05 0 0 7683.66 0.34 0zm-2743.21 -1384.3c562.78,0 1038.4,-622.83 1038.4,-1462.54 0,-856.52 -415.56,-1479.7 -1038.4,-1479.7 -666.07,0 -1029.82,657.49 -1029.82,1410.38 0,908.68 389.48,1531.86 1029.82,1531.86zm5061.93 -900.1c95.05,796.13 614.25,1099.14 1445.04,1099.14 467.04,0 994.82,-121.48 1505.44,-441.3l0 1401.8c-553.51,250.51 -1176.69,363.4 -1808.44,363.4 -1626.57,0 -2864,-1116.29 -2864,-3002.64 0,-1886 1107.72,-2985.13 2638.89,-2985.13 1825.6,0 2483.09,1505.78 2483.09,3201.67l0 363.4 -3400.02 0 0 -0.34zm1869.18 -1107.37c0,-666.41 -259.77,-1203.11 -943,-1203.11 -614.25,0 -908.34,536.36 -943.34,1203.11l1886.34 0zm2085.38 1808.44c397.72,199.03 986.24,398.06 1600.49,398.06 346.25,0 692.49,-60.74 692.49,-458.8 0,-968.74 -2423.04,-285.51 -2423.04,-2344.8 0,-1315.33 1116.29,-1860.6 2102.53,-1860.6 579.94,0 1177.03,78.24 1722.31,337.67l-129.71 1366.8c-354.83,-250.85 -900.1,-380.56 -1323.9,-380.56 -363.4,0 -778.63,77.9 -778.63,398.06 0,882.26 2526.33,181.53 2526.33,2353.38 0,1522.94 -1177.03,1912.08 -2293.33,1912.08 -769.7,0 -1289.25,-95.05 -1790.94,-276.93l95.4 -1444.35 0 -0.01zm8444.78 -2492.02c-311.24,-216.53 -622.83,-320.51 -1029.48,-320.51 -744.31,0 -1306.75,597.1 -1306.75,1575.1 0,908 657.49,1505.44 1401.46,1505.44 380.91,0 770.39,-95.05 1055.56,-276.93l35 1471.12c-442.31,167.1 -911.46,255.65 -1384.51,259.56 -1626.57,0 -2864.34,-1098.79 -2864.34,-2994.06 0,-1894.58 1237.43,-2994.06 2864.34,-2994.06 510.28,0 960.5,103.98 1349.64,320.51l-121.13 1453.96 0.21 -0.13zm337.67 1219.93c0,-1894.58 1237.09,-2994.06 2864.34,-2994.06 1626.57,0 2864,1099.14 2864,2994.06 0,1894.92 -1237.09,2994.06 -2864,2994.06 -1627.26,-0.34 -2864.34,-1099.14 -2864.34,-2994.06zm3971.37 0c0,-847.94 -320.17,-1609.07 -1107.37,-1609.07 -778.97,0 -1099.14,761.47 -1099.14,1609.07 0,848.29 320.51,1609.41 1099.14,1609.41 787.21,0 1107.37,-761.47 1107.37,-1609.41z"/>
  <polygon class="fil0" points="2918.2,17116.62 2918.2,1792.54 18250.86,1792.54 18250.86,17116.62 "/>
  <path class="fil2" d="M11821.79 10930.16l-1272.09 0 0 6186.46 -804.71 0 0 -4144.67 -562.09 0.01 0 4144.67 -6264.7 -0.01 0 -15324.08 15332.66 0 0 15324.08 -6429.07 0 0 -6186.46zm-2353.38 -5070.85c-778.97,0 -1522.94,60.4 -2232.59,172.95 960.5,-1193.85 2414.12,-1955.32 4040.69,-1955.32 1315.33,0 2518.1,501.7 3435.36,1323.9 -960.5,-1150.95 -2388.38,-1886.34 -3980.29,-1886.34 -1955.66,0 -3668.71,1107.72 -4577.39,2743.21 -943,242.27 -1773.79,579.59 -2457.36,994.82 683.57,-303.01 1462.2,-544.94 2318.72,-718.23 -354.83,726.81 -544.94,1548.67 -544.94,2414.12 0,1635.49 700.73,3106.27 1825.6,4101.43 -804.71,-951.92 -1280.67,-2189.35 -1280.67,-3538.99 0,-1168.11 354.83,-2240.82 951.92,-3123.77 556.46,-61.71 1119.9,-95.07 1679.63,-95.07 4213.98,0 7631.5,1808.44 7631.5,4032.11 0,1012.32 -700.73,1929.58 -1851.68,2638.89 1635.49,-735.73 2673.89,-1842.76 2673.89,-3071.61 0,-2232.25 -3417.86,-4032.11 -7631.5,-4032.11l-0.89 0.01z"/>
 </g>
</svg>
