<?xml version="1.0" encoding="UTF-8"?>
<!DOCTYPE svg PUBLIC "-//W3C//DTD SVG 1.1//EN" "http://www.w3.org/Graphics/SVG/1.1/DTD/svg11.dtd">
<!-- Creator: CorelDRAW -->
<svg xmlns="http://www.w3.org/2000/svg" xml:space="preserve" width="661.458mm" height="171.612mm" version="1.1" style="shape-rendering:geometricPrecision; text-rendering:geometricPrecision; image-rendering:optimizeQuality; fill-rule:evenodd; clip-rule:evenodd"
viewBox="0 0 66145.8 17161.2"
 xmlns:xlink="http://www.w3.org/1999/xlink"
 xmlns:xodm="http://www.corel.com/coreldraw/odm/2003">
 <defs>
  <style type="text/css">
   <![CDATA[
    .fil1 {fill:#0D6FAB}
    .fil2 {fill:#DB8135}
    .fil0 {fill:white}
   ]]>
  </style>
 </defs>
 <g id="Camada_x0020_1">
  <metadata id="CorelCorpID_0Corel-Layer"/>
  <polygon class="fil0" points="0.07,-0.01 66145.73,-0.01 66145.73,17161.2 0.07,17161.21 "/>
  <path class="fil1" d="M22122.03 6431.4l-1461.17 3640.91 2021.55 0 -553.86 -3656.35 -6.52 15.44zm-7740.28 8357.28l5993.95 -12338.95 4530.37 0 2527.7 12338.95 -3978.91 0 -292.37 -1644.07 -3859.85 0 -888.09 1644.07 -4032.8 0zm14934.94 0l1736.38 -12338.95 4008.78 0 -1736.04 12338.95 -4009.12 0zm26660.32 -8372.72l-1467 3656.35 2021.54 0 -554.54 -3656.35zm-7746.46 8372.72l5993.95 -12338.95 4530.03 0 2527.36 12338.95 -3978.58 0 -292.37 -1644.07 -3859.84 0 -888.09 1644.07 -4032.46 0zm-8861.72 -5769.52l5022.46 0 3441.88 5700.55 -5023.49 -0.01 -3440.85 -5700.55 0 0.01z"/>
  <path class="fil2" d="M39890.77 8143.42l5191.64 0 4508.76 -5675.84 -5191.64 0 -4508.76 5675.84zm-5191.64 6610.94l5191.64 0 4508.76 -5745.84 -5191.64 0 -4508.76 5745.84z"/>
  <path class="fil1" d="M36571.06 2398.26l4845.74 0 3319.71 5745.16 -4845.74 0 -3319.71 -5745.16zm-22070.23 493.46l-385.71 3628.9c-1477.64,-2038.02 -4901.67,-631.75 -5170.71,1907.27 -341.79,3222.94 2953.91,3974.8 4747.6,2076.79l-386.74 3637.48c-535.33,263.55 -1058.64,467.04 -1575.1,605.33 -501.71,135.07 -1020.28,211.4 -1539.64,222.42 -642.39,13.38 -1224.05,-54.22 -1748.74,-201.78 -511.07,-138.39 -993,-372.32 -1418.66,-687.01 -809.85,-591.95 -1395.28,-1344.49 -1756.28,-2260.73 -360.32,-918.98 -479.39,-1955.66 -356.2,-3114.51 98.83,-930.99 333.89,-1780.31 707.59,-2550.35 370.61,-770.05 883.98,-1469.06 1537.69,-2103.22 618.03,-604.99 1290.96,-1061.05 2019.49,-1371.26 725.09,-307.13 1517.1,-471.16 2372.94,-489 45.89,-1.01 94.56,-1.73 141.09,-1.73 457.38,0 914.04,53.68 1358.53,159.62 489,117.02 971.48,299.58 1452.93,541.85l-0.08 -0.07z"/>
 </g>
</svg>
