<?xml version="1.0" encoding="UTF-8"?>
<!DOCTYPE svg PUBLIC "-//W3C//DTD SVG 1.1//EN" "http://www.w3.org/Graphics/SVG/1.1/DTD/svg11.dtd">
<!-- Creator: CorelDRAW 2020 (64 Bit) -->
<svg xmlns="http://www.w3.org/2000/svg" xml:space="preserve" width="22.067mm" height="21.7503mm" version="1.1" style="shape-rendering:geometricPrecision; text-rendering:geometricPrecision; image-rendering:optimizeQuality; fill-rule:evenodd; clip-rule:evenodd"
viewBox="0 0 382.56 377.07"
 xmlns:xlink="http://www.w3.org/1999/xlink"
 xmlns:xodm="http://www.corel.com/coreldraw/odm/2003">
 <defs>
  <style type="text/css">
   <![CDATA[
    .str0 {stroke:#0a100d;stroke-width:4.18;stroke-linecap:round;stroke-linejoin:round;stroke-miterlimit:22.9256}
    .fil0 {fill:none}
   ]]>
  </style>
 </defs>
 <g id="Camada_x0020_1">
  <metadata id="CorelCorpID_0Corel-Layer"/>
  <g>
   <path class="fil0 str0" d="M200.94 142.5c3.5,-87.78 35.26,-135.54 113.24,-97.1 38.43,20.73 28.32,85.5 -15.95,97.47 -16.96,1.93 -33.05,-0.55 -48.44,-6.5 -18.01,-7.13 -29,-2.27 -34.69,11.62m0.4 0.23c7.92,-12.71 5.04,-25.32 -7.64,-37.84 -38.9,-29.71 -42.03,-60.27 -14.77,-91.56 31.77,-27.27 63.14,-20.08 86.84,13.3 35.68,51.15 6.31,90.34 -54.91,123.67m-68.26 0.84c-74.87,-44.59 -101.3,-94.99 -30.77,-145.18 36.48,-23.99 88.71,15.64 78.23,60.29 -6.35,15.85 -16.16,28.83 -28.7,39.56 -14.71,12.38 -15.74,24.28 -6.44,35.8m0.45 -0.24c-7.45,-12.8 -19.86,-16.17 -36.79,-10.98 -44.61,20.15 -72.99,8.39 -87.6,-30.44 -8.92,-40.91 12.28,-65.11 52.91,-70.13 62.07,-7.14 82.59,37.47 82.8,107.39m-34.37 60.09c-79.42,38.41 -136.75,32.96 -139.44,-54.14 0.26,-43.66 62.2,-65.15 93.54,-31.68 9.66,14.07 15.03,29.44 17.01,45.82 2.17,19.31 11.68,26.72 26.7,25.16m0.01 -0.43c-15.02,-1.09 -24.85,7.37 -29.96,24.51 -7.96,48.3 -33.48,65.41 -73.9,56.03 -38.99,-15.25 -47.38,-46.32 -29.04,-82.92 28.38,-55.45 76.68,-48.01 134.75,-9.72m34.36 58.91c-0.52,87.34 -30.6,135.81 -109.67,100.31 -39.15,-19.33 -31.38,-84.43 12.44,-97.98 16.88,-2.53 33.05,-0.64 48.64,4.75 18.35,6.51 29.17,1.17 34.33,-13.07m-0.35 -0.22c-7.63,13.06 -4.33,25.63 8.87,37.76 39.95,28.3 44.16,58.72 18.05,90.97 -30.78,28.39 -62.38,22.34 -87.26,-10.17 -37.68,-50.09 -9.27,-90.46 51.35,-126.09m70.38 -1.75c73.14,49.81 97.16,102.32 22.86,148.11 -37.99,21.53 -87.47,-21.47 -74.07,-65.33 7.39,-15.39 18.03,-27.7 31.26,-37.57 15.57,-11.44 17.34,-23.3 8.67,-35.47m-0.41 0.25c6.57,13.37 18.75,17.59 36.05,13.52 45.85,-17.15 73.39,-3.55 85.4,36.17 6.2,41.41 -16.56,64.16 -57.43,66.48 -61.97,3 -79.69,-42.21 -75.61,-111.16m32 -59.94c78.93,-40.13 136.57,-35.91 140.89,51.29 0.56,43.66 -60.97,66.3 -92.94,33.42 -9.93,-13.89 -15.58,-29.15 -17.86,-45.49 -2.57,-19.53 -12.43,-26.69 -27.76,-24.58m-0 0.32c15.38,1.07 25.24,-7.57 30.1,-25.02 7.07,-48.44 32.26,-66.02 72.85,-57.4 39.27,14.52 48.24,45.43 30.57,82.36 -27.43,56.15 -76.08,49.38 -135.1,11.88"/>
  </g>
 </g>
</svg>
