<?xml version="1.0" encoding="UTF-8"?>
<!DOCTYPE svg PUBLIC "-//W3C//DTD SVG 1.1//EN" "http://www.w3.org/Graphics/SVG/1.1/DTD/svg11.dtd">
<!-- Creator: CorelDRAW 2020 (64 Bit) -->
<svg xmlns="http://www.w3.org/2000/svg" xml:space="preserve" width="22.067mm" height="21.7503mm" version="1.1" style="shape-rendering:geometricPrecision; text-rendering:geometricPrecision; image-rendering:optimizeQuality; fill-rule:evenodd; clip-rule:evenodd"
viewBox="0 0 760.1 749.19"
 xmlns:xlink="http://www.w3.org/1999/xlink"
 xmlns:xodm="http://www.corel.com/coreldraw/odm/2003">
 <defs>
  <style type="text/css">
   <![CDATA[
    .str0 {stroke:#D4AF37;stroke-width:8.3;stroke-linecap:round;stroke-linejoin:round;stroke-miterlimit:22.9256}
    .fil0 {fill:none}
   ]]>
  </style>
 </defs>
 <g id="Camada_x0020_1">
  <metadata id="CorelCorpID_0Corel-Layer"/>
  <g>
   <path class="fil0 str0" d="M399.24 283.14c6.95,-174.42 70.05,-269.31 225,-192.94 76.36,41.19 56.28,169.89 -31.69,193.66 -33.7,3.83 -65.67,-1.09 -96.24,-12.91 -35.79,-14.16 -57.62,-4.51 -68.93,23.08m0.79 0.47c15.74,-25.26 10.02,-50.31 -15.19,-75.19 -77.3,-59.03 -83.5,-119.76 -29.34,-181.92 63.13,-54.18 125.46,-39.9 172.54,26.42 70.89,101.64 12.53,179.5 -109.11,245.71m-135.62 1.68c-148.75,-88.6 -201.28,-188.74 -61.14,-288.45 72.49,-47.67 176.25,31.08 155.43,119.79 -12.62,31.49 -32.11,57.28 -57.03,78.59 -29.23,24.6 -31.28,48.23 -12.8,71.12m0.9 -0.48c-14.79,-25.42 -39.45,-32.12 -73.11,-21.81 -88.64,40.03 -145.03,16.67 -174.06,-60.49 -17.73,-81.29 24.4,-129.38 105.13,-139.35 123.32,-14.19 164.09,74.45 164.51,213.37m-68.29 119.39c-157.81,76.32 -271.72,65.5 -277.06,-107.56 0.51,-86.75 123.58,-129.46 185.86,-62.95 19.2,27.96 29.87,58.49 33.79,91.04 4.32,38.37 23.2,53.09 53.05,49.99m0.01 -0.86c-29.85,-2.16 -49.37,14.64 -59.54,48.69 -15.82,95.96 -66.52,129.96 -146.84,111.33 -77.48,-30.3 -94.14,-92.03 -57.69,-164.74 56.38,-110.17 152.35,-95.39 267.74,-19.32m68.27 117.04c-1.04,173.54 -60.8,269.84 -217.91,199.3 -77.79,-38.42 -62.35,-167.76 24.71,-194.67 33.55,-5.04 65.66,-1.27 96.65,9.44 36.45,12.93 57.96,2.33 68.21,-25.96m-0.7 -0.44c-15.15,25.95 -8.61,50.93 17.63,75.03 79.37,56.22 87.75,116.68 35.86,180.75 -61.15,56.41 -123.94,44.39 -173.39,-20.2 -74.87,-99.52 -18.41,-179.74 102.02,-250.54m139.83 -3.48c145.32,98.96 193.06,203.31 45.42,294.28 -75.48,42.78 -173.8,-42.67 -147.16,-129.81 14.68,-30.58 35.83,-55.03 62.1,-74.65 30.94,-22.73 34.45,-46.29 17.23,-70.47m-0.81 0.5c13.05,26.56 37.26,34.95 71.63,26.86 91.1,-34.08 145.82,-7.05 169.68,71.87 12.32,82.28 -32.91,127.47 -114.11,132.09 -123.12,5.96 -158.33,-83.86 -150.23,-220.86m63.58 -119.09c156.84,-79.74 271.36,-71.36 279.93,101.91 1.11,86.75 -121.14,131.73 -184.66,66.4 -19.72,-27.6 -30.95,-57.92 -35.48,-90.39 -5.1,-38.8 -24.69,-53.03 -55.16,-48.84m-0.01 0.63c30.56,2.13 50.16,-15.04 59.81,-49.72 14.04,-96.24 64.1,-131.17 144.75,-114.04 78.03,28.85 95.84,90.26 60.75,163.64 -54.49,111.56 -151.16,98.12 -268.44,23.6"/>
  </g>
 </g>
</svg>
