<?xml version="1.0" encoding="UTF-8"?>
<!DOCTYPE svg PUBLIC "-//W3C//DTD SVG 1.1//EN" "http://www.w3.org/Graphics/SVG/1.1/DTD/svg11.dtd">
<!-- Creator: CorelDRAW 2020 (64 Bit) -->
<svg xmlns="http://www.w3.org/2000/svg" xml:space="preserve" width="93.8715mm" height="12.1108mm" version="1.1" style="shape-rendering:geometricPrecision; text-rendering:geometricPrecision; image-rendering:optimizeQuality; fill-rule:evenodd; clip-rule:evenodd"
viewBox="0 0 12000.58 1548.25"
 xmlns:xlink="http://www.w3.org/1999/xlink"
 xmlns:xodm="http://www.corel.com/coreldraw/odm/2003">
 <defs>
  <style type="text/css">
   <![CDATA[
    .fil0 {fill:#0a100d;fill-rule:nonzero}
   ]]>
  </style>
 </defs>
 <g id="Camada_x0020_1">
  <metadata id="CorelCorpID_0Corel-Layer"/>
  <path class="fil0" d="M4.64 655.63l-4.64 -37.06c0,-108.11 47.11,-204.65 141.33,-289.6 168.34,-149.8 440.17,-242.48 815.48,-278 57.14,-4.63 123.94,-6.94 200.39,-6.94 76.45,0 173.36,11.19 290.75,33.58 117.38,22.4 213.92,63.72 289.6,123.94 120.46,98.85 180.7,228.2 180.7,388.06 0,159.85 -47.49,307.34 -142.48,442.48 -94.99,135.15 -215.85,239.79 -362.57,313.93 -146.72,74.13 -303.49,111.2 -470.3,111.2 -166.79,0 -301.93,-39.39 -405.42,-118.15 -1.55,1.55 -8.88,14.68 -22,39.39 -13.13,24.71 -26.64,48.64 -40.55,71.81 -71.04,112.76 -134.37,128.2 -189.97,46.34 -32.43,-47.88 -48.64,-105.02 -48.64,-171.43 0,-66.41 6.94,-146.74 20.85,-240.94 1.53,-9.27 -4.64,-30.89 -18.54,-64.87 -4.64,-15.44 0.77,-30.9 16.21,-46.34 12.36,-9.27 29.74,-16.99 52.13,-23.16 22.4,-6.17 37.84,-6.17 46.33,0 8.5,6.17 6.57,22.78 -5.79,49.81 -12.35,27.04 -18.54,52.13 -18.54,75.3 0,23.16 23.94,57.53 71.82,103.09 47.88,45.56 77.23,69.89 88.04,72.98 37.06,-91.12 115.82,-261.79 236.3,-512 13.9,-27.79 20.85,-48.64 20.85,-62.55 0,-13.9 -1.55,-24.71 -4.64,-32.43 7.72,-44.78 56.76,-115.84 147.12,-213.14 90.34,-97.3 163.33,-145.96 218.93,-145.96 21.62,0 48.66,7.34 81.09,22.01 32.43,14.68 50.96,35.13 55.6,61.39 0,9.27 -0.77,14.29 -2.31,15.06 -1.55,0.77 -5.41,-0.38 -11.58,-3.48 -6.19,-3.08 -10.82,-4.63 -13.91,-4.63 -49.42,0 -107.72,35.91 -174.91,107.73 -67.18,71.81 -133.98,165.64 -200.39,281.48 -117.38,200.77 -211.6,378.4 -282.64,532.84 95.75,69.51 200.01,104.25 312.76,104.25 146.72,0 287.27,-37.84 421.64,-113.52 134.36,-75.68 242.48,-162.95 324.33,-261.79 132.83,-162.17 199.24,-322.02 199.24,-479.56 0,-115.84 -45.95,-219.31 -137.85,-310.44 -91.89,-91.12 -237.45,-139.78 -436.69,-145.96 -9.27,0 -18.54,0 -27.81,0 -157.54,0 -323.56,25.87 -498.09,77.61 -174.53,51.74 -323.56,125.49 -447.12,221.24 -123.56,95.77 -185.34,195.38 -185.34,298.85 0,26.26 8.11,49.42 24.33,69.51 16.22,20.08 33.2,33.98 50.97,41.7 17.76,7.72 40.15,16.21 67.18,25.48 27.03,9.27 44.8,15.84 53.28,19.7 8.5,3.86 13.51,8.11 15.06,12.73 3.09,12.36 -7.72,18.54 -32.43,18.54 -57.14,-4.63 -114.67,-25.86 -172.6,-63.7 -57.91,-37.84 -86.87,-82.25 -86.87,-133.21 0,-7.73 0.77,-15.46 2.31,-23.18zm312.75 507.36c0,208.51 14.68,312.76 44.02,312.76 21.63,0 52.52,-54.06 92.67,-162.17 3.09,-4.64 4.64,-7.73 4.64,-9.27 -10.82,-9.27 -33.6,-32.05 -68.34,-68.34 -34.76,-36.29 -59.08,-60.62 -72.98,-72.98zm2085.04 -46.33c27.81,-57.14 41.7,-101.16 41.7,-132.06 0,-30.89 -3.48,-55.21 -10.42,-72.97 -6.95,-17.76 -3.86,-32.82 9.26,-45.18 13.13,-12.35 29.74,-16.99 49.82,-13.9 30.89,7.72 46.33,42.47 46.33,104.25 0,61.77 -36.29,142.86 -108.88,243.25 1.55,41.7 23.16,62.55 64.87,62.55 41.7,0 105.02,-44.8 189.97,-134.37 40.15,-46.33 65.25,-76.45 75.29,-90.36 10.05,-13.9 18.92,-18.91 26.64,-15.05 7.73,3.86 11.6,7.33 11.6,10.42 0,15.44 -27.81,55.6 -83.4,120.46 -88.04,108.11 -166.04,162.18 -233.99,162.18 -44.8,0 -76.46,-19.3 -94.99,-57.92 -30.9,32.43 -61.02,62.55 -90.36,90.36 -60.24,50.97 -127.42,76.45 -201.55,76.45 -41.7,0 -76.45,-10.04 -104.25,-30.12 -54.05,-32.43 -81.09,-90.34 -81.09,-173.75 0,-91.12 30.9,-183.8 92.67,-278.01 35.53,-55.6 77.23,-104.24 125.1,-145.94 75.68,-66.41 147.5,-99.63 215.45,-99.63 16.99,0 33.21,2.31 48.66,6.95 46.33,15.44 69.51,44.78 69.51,88.03 0,35.53 -9.27,53.28 -27.81,53.28 -7.72,-3.08 -11.58,-14.66 -11.58,-34.75 0,-27.81 -15.44,-41.7 -46.34,-41.7 -54.05,0 -123.56,49.42 -208.5,148.27 -84.95,98.85 -135.92,198.47 -152.91,298.85 -3.08,16.99 -4.63,35.91 -4.63,56.76 0,20.85 6.95,44.8 20.85,71.82 13.9,27.03 39.77,40.54 77.61,40.54 37.84,0 79.15,-16.99 123.94,-50.97 44.78,-33.97 84.95,-77.22 120.46,-129.73l-6.94 -13.9c-6.19,-24.71 -3.09,-44.8 9.26,-60.24 12.36,-15.44 28.59,-20.07 48.66,-13.9zm1137.51 -926.69c18.54,-33.98 27.79,-60.23 27.79,-78.76 0,-32.43 -13.13,-48.66 -39.37,-48.66 -21.63,0 -48.66,12.36 -81.09,37.07 -123.56,95.75 -243.25,247.12 -359.09,454.08 -92.67,166.79 -160.62,309.67 -203.87,428.59 106.57,-72.59 225.88,-190.74 357.93,-354.45 132.06,-163.71 231.29,-309.67 297.7,-437.87zm-690.39 884.99c-18.52,52.52 -28.57,87.65 -30.11,105.4 -1.55,17.77 -2.33,41.7 -2.33,71.82 0,30.12 7.72,57.53 23.18,82.24 26.25,41.7 70.27,44.8 132.05,9.27 46.33,-24.71 105.02,-69.88 176.07,-135.52 71.04,-65.63 125.87,-125.49 164.48,-179.54 3.09,-4.64 7.72,-6.95 13.91,-6.95 13.9,0 17.76,10.04 11.58,30.12 -23.16,41.7 -66.03,94.99 -128.58,159.85 -62.55,64.87 -119.31,116.22 -170.28,154.06 -50.96,37.84 -101.93,56.76 -152.9,56.76 -117.38,0 -176.07,-57.14 -176.07,-171.43 0,-4.64 0,-9.27 0,-13.91 6.19,-108.11 61.01,-271.44 164.49,-489.99 103.47,-218.54 196.93,-383.41 280.32,-494.61l71.82 -90.34c16.99,-20.08 41.7,-44.8 74.13,-74.13 61.79,-58.69 125.49,-88.04 191.13,-88.04 65.63,0 110.05,20.08 133.21,60.24 7.72,13.9 11.58,33.98 11.58,60.24 0,26.26 -11.58,63.32 -34.75,111.2 -159.08,276.47 -410.06,557.56 -752.94,843.29zm1012.41 -213.14l11.58 -46.34c0,-30.89 -11.58,-46.33 -34.75,-46.33 -63.33,0 -149.82,49.42 -259.48,148.27 -109.66,98.85 -179.16,198.47 -208.51,298.85 -7.72,26.26 -11.58,49.82 -11.58,70.67 0,20.84 4.64,38.22 13.91,52.12 18.52,27.81 47.1,41.7 85.72,41.7 38.61,0 80.31,-5.41 125.09,-16.22 98.85,-27.79 181.1,-67.56 246.73,-119.3 65.65,-51.75 134.76,-123.95 207.34,-216.61 6.19,-7.72 13.51,-10.05 22.01,-6.95 8.49,3.09 12.75,7.34 12.75,12.75 0,5.39 -2.33,13.51 -6.95,24.32 -74.13,100.39 -151.75,181.87 -232.84,244.42 -81.08,62.55 -174.91,103.09 -281.48,121.63 -30.89,4.63 -59.46,6.95 -85.72,6.95 -75.68,0 -133.21,-18.54 -172.6,-55.61 -39.37,-37.06 -59.08,-78 -59.08,-122.78 0,-44.8 10.82,-93.44 32.43,-145.96 38.62,-88.03 121.24,-178.39 247.9,-271.06 126.65,-92.66 227.03,-139 301.17,-139 18.54,0 36.29,2.31 53.28,6.95 43.25,15.44 64.88,40.15 64.88,74.13 0,23.16 -8.5,49.42 -25.49,78.76 -16.99,29.35 -29.74,39.77 -38.22,31.28 -8.49,-8.5 -11.2,-17.37 -8.11,-26.64zm683.42 -164.49c83.4,0 125.1,40.15 125.1,120.48 0,41.7 -11.58,75.67 -34.75,101.93 -38.61,57.14 -101.16,106.96 -187.66,149.43 -86.48,42.47 -159.85,66.03 -220.09,70.66 -21.62,1.55 -33.2,-4.63 -34.75,-18.54 -1.55,-6.17 0.38,-10.04 5.79,-11.58 5.41,-1.55 9.65,-2.31 12.75,-2.31 35.53,-3.09 81.08,-20.08 136.69,-50.97 103.47,-55.6 179.16,-112.74 227.03,-171.43 20.08,-27.81 30.12,-54.45 30.12,-79.93 0,-25.48 -12.35,-38.22 -37.06,-38.22 -20.08,0 -47.11,8.49 -81.09,25.48 -72.59,33.98 -149.05,93.06 -229.36,177.24 -80.31,84.17 -132.83,166.41 -157.54,246.72 -7.72,24.71 -11.58,49.04 -11.58,72.98 0,23.93 10.04,46.71 30.12,68.34 20.08,21.62 50.97,32.43 92.67,32.43 46.33,0 99.61,-12.36 159.85,-37.07 174.53,-71.04 308.89,-178.39 403.11,-322.02 9.27,-12.36 17.76,-14.68 25.48,-6.95 6.19,3.09 9.27,6.95 9.27,11.58 0,4.64 -2.31,10.05 -6.94,16.22 -46.34,77.22 -105.03,145.96 -176.07,206.18 -137.45,117.38 -271.06,176.07 -400.79,176.07 -111.2,0 -189.19,-33.21 -233.99,-99.63 -16.99,-26.25 -25.48,-57.91 -25.48,-94.97 0,-37.07 10.04,-81.09 30.11,-132.06 38.62,-88.03 121.24,-178.39 247.9,-271.06 126.65,-92.66 227.03,-139 301.17,-139zm1925.2 -511.99c3.08,3.08 10.04,5.02 20.84,5.79 10.82,0.77 20.47,5.02 28.97,12.75 8.49,7.72 21.62,33.2 39.37,76.45 17.77,43.25 26.64,79.15 26.64,107.73 0,28.57 -3.46,58.68 -10.42,90.34 -6.95,31.67 -18.15,47.49 -33.6,47.49 -26.26,0 -47.88,-30.5 -64.87,-91.51 -16.99,-61.01 -29.34,-99.23 -37.06,-114.67 -43.25,-91.12 -89.58,-157.54 -139,-199.24 -44.8,-41.7 -90.36,-62.55 -136.69,-62.55 -20.08,0 -40.17,3.86 -60.24,11.58 -98.85,41.7 -148.27,139 -148.27,291.91 0,49.42 9.27,107.72 27.81,174.91 18.52,67.18 47.1,126.26 85.72,177.23 7.72,9.27 48.64,16.99 122.78,23.16 38.62,4.63 61.01,18.15 67.19,40.54 6.17,22.4 -3.09,39.77 -27.81,52.13 -13.9,16.99 -67.18,12.35 -159.85,-13.91 -24.71,-6.17 -40.93,-10.04 -48.66,-11.58 -83.4,1.55 -177.61,20.08 -282.63,55.61 -105.03,35.51 -201.57,89.96 -289.6,163.33 -88.03,73.35 -132.05,154.06 -132.05,242.09 0,66.41 27.03,120.08 81.08,161.02 54.06,40.92 140.93,61.39 260.63,61.39 119.7,0 253.3,-18.54 400.79,-55.6 147.5,-37.07 263.34,-77.23 347.51,-120.48 84.18,-43.24 167.19,-104.25 249.05,-183.02 81.86,-78.76 122.79,-146.72 122.79,-203.87 0,-9.27 -0.38,-16.99 -1.16,-23.16 -0.77,-6.19 0.38,-10.05 3.48,-11.6 9.27,-4.63 16.99,-3.86 23.16,2.33 20.08,38.61 30.12,68.73 30.12,90.34 0,63.33 -20.85,120.48 -62.55,171.43 -72.59,88.04 -154.44,157.54 -245.57,208.51 -91.12,50.97 -215.85,94.22 -374.15,129.73 -158.3,35.53 -289.97,53.28 -395,53.28 -105.02,0 -194.22,-9.26 -267.58,-27.79 -73.35,-18.54 -137.07,-55.6 -191.12,-111.21 -54.06,-55.6 -81.09,-123.94 -81.09,-205.03 0,-81.08 19.7,-149.8 59.08,-206.18 39.39,-56.38 86.5,-100.01 141.33,-130.9 54.83,-30.89 120.85,-56.38 198.08,-76.45 114.29,-30.89 241.71,-50.2 382.26,-57.92 -100.39,-114.29 -159.85,-246.34 -178.39,-396.15 -1.55,-16.99 -2.31,-33.21 -2.31,-48.66 0,-55.6 13.51,-106.95 40.54,-154.06 27.04,-47.11 72.2,-80.69 135.54,-100.78 63.32,-20.07 110.43,-30.12 141.31,-30.12 30.89,0 53.67,1.93 68.34,5.79 14.68,3.86 27.41,7.72 38.22,11.58 10.82,3.87 21.62,9.27 32.43,16.22 10.82,6.95 20.08,12.75 27.81,17.37 7.72,4.64 16.99,11.97 27.79,22.01 10.82,10.04 18.54,16.99 23.18,20.85 4.63,3.86 13.12,11.58 25.48,23.16 12.35,11.58 20.08,18.14 23.16,19.69 23.16,27.81 45.56,44.02 67.19,48.66zm1093.48 528.21c35.53,0 53.28,18.92 53.28,56.76 0,37.84 -17.76,89.96 -53.28,156.37 -35.53,66.41 -61.79,120.46 -78.78,162.17 -29.34,71.05 -44.02,127.81 -44.02,170.28 0,42.47 6.19,70.66 18.54,84.55 23.16,24.71 54.83,25.87 94.99,3.48 40.15,-22.4 96.15,-65.63 167.96,-129.73 71.82,-64.1 129.35,-127.04 172.6,-188.81 6.17,-7.72 13.51,-9.65 22.01,-5.79 8.49,3.86 12.73,7.72 12.73,11.58 0,3.86 -1.53,8.11 -4.63,12.73 -23.16,41.7 -64.87,94.99 -125.1,159.85 -60.23,64.88 -118.15,117 -173.75,156.39 -55.6,39.37 -110.43,59.08 -164.49,59.08 -52.5,-1.55 -89.58,-13.51 -111.2,-35.91 -21.63,-22.4 -32.43,-50.59 -32.43,-84.57 0,-33.97 3.08,-66.8 9.27,-98.45 6.17,-31.67 17.76,-68.34 34.75,-110.05 27.79,-66.41 52.12,-118.15 72.97,-155.22 20.85,-37.06 31.28,-61.39 31.28,-72.97 0,-11.58 -6.19,-17.37 -18.54,-17.37 -24.71,0 -71.82,30.11 -141.31,90.34 -47.89,44.8 -118.55,129.35 -211.99,253.69 -93.44,124.32 -146.34,190.35 -158.69,198.08 -55.61,27.79 -90.36,41.7 -104.25,41.7 -13.91,0 -20.85,-2.33 -20.85,-6.95 0,-4.63 1.53,-11.2 4.63,-19.69 3.09,-8.5 18.15,-50.59 45.18,-126.27 27.03,-75.68 56.38,-158.69 88.03,-249.05 31.67,-90.34 50.97,-144.79 57.92,-163.33 6.94,-18.52 11.58,-34.36 13.9,-47.49 2.31,-13.13 5.02,-24.33 8.11,-33.58 3.09,-9.27 8.88,-19.7 17.37,-31.28 8.5,-11.58 19.7,-17.76 33.6,-18.54 13.9,-0.77 31.67,0.78 53.28,4.64 21.63,3.86 32.43,13.51 32.43,28.96 0,10.82 -8.49,34.36 -25.48,70.66 -16.99,36.29 -65.65,161.02 -145.96,374.15 55.6,-67.96 125.87,-146.34 210.82,-235.15 84.95,-88.8 156.76,-156.37 215.45,-202.7 58.69,-41.7 106.57,-62.55 143.64,-62.55zm882.67 148.27l11.58 -46.34c0,-30.89 -11.58,-46.33 -34.75,-46.33 -63.33,0 -149.82,49.42 -259.48,148.27 -109.66,98.85 -179.16,198.47 -208.51,298.85 -7.72,26.26 -11.58,49.82 -11.58,70.67 0,20.84 4.64,38.22 13.91,52.12 18.52,27.81 47.1,41.7 85.72,41.7 38.61,0 80.31,-5.41 125.09,-16.22 98.85,-27.79 181.1,-67.56 246.73,-119.3 65.65,-51.75 134.76,-123.95 207.34,-216.61 6.19,-7.72 13.51,-10.05 22.01,-6.95 8.49,3.09 12.75,7.34 12.75,12.75 0,5.39 -2.33,13.51 -6.95,24.32 -74.13,100.39 -151.75,181.87 -232.84,244.42 -81.08,62.55 -174.91,103.09 -281.48,121.63 -30.89,4.63 -59.46,6.95 -85.72,6.95 -75.68,0 -133.21,-18.54 -172.6,-55.61 -39.37,-37.06 -59.08,-78 -59.08,-122.78 0,-44.8 10.82,-93.44 32.43,-145.96 38.62,-88.03 121.24,-178.39 247.9,-271.06 126.65,-92.66 227.03,-139 301.17,-139 18.54,0 36.29,2.31 53.28,6.95 43.25,15.44 64.88,40.15 64.88,74.13 0,23.16 -8.5,49.42 -25.49,78.76 -16.99,29.35 -29.74,39.77 -38.22,31.28 -8.49,-8.5 -11.2,-17.37 -8.11,-26.64zm264.11 535.15c-24.71,0 -51.35,-7.33 -79.93,-22 -28.57,-14.68 -52.9,-35.53 -72.98,-62.55 -20.07,-27.03 -30.12,-55.99 -30.12,-86.88 0,-30.89 6.95,-60.23 20.85,-88.03 30.9,-64.87 80.71,-127.8 149.43,-188.81 68.73,-61.02 140.16,-113.14 214.3,-156.39 74.13,-43.25 132.83,-70.27 176.06,-81.08 43.25,-10.82 85.33,-16.22 126.27,-16.22 40.92,0 76.07,10.43 105.4,31.28 29.35,20.84 44.02,42.85 44.02,66.02 0,7.72 -0.77,12.36 -2.31,13.91 -1.55,1.53 -5.41,0.77 -11.58,-2.33 -18.54,-29.34 -56.76,-44.02 -114.67,-44.02 -57.92,0 -123.56,18.92 -196.93,56.76 -73.35,37.84 -142.48,85.33 -207.34,142.48 -54.05,50.97 -101.54,108.5 -142.48,172.6 -40.92,64.1 -61.39,110.81 -61.39,140.16 0,57.14 16.21,85.72 48.64,85.72 32.43,0 81.86,-26.26 148.27,-78.78 109.66,-92.67 184.58,-160.62 224.73,-203.87 142.08,-152.9 218.54,-229.36 229.35,-229.36 18.54,0 40.93,5.41 67.19,16.22 26.26,10.82 34.75,23.93 25.48,39.39 -78.76,111.2 -125.1,223.17 -139,335.91 -1.55,13.91 -2.31,31.67 -2.31,53.28 0,21.63 6.17,39.39 18.54,53.28 23.16,24.71 54.82,26.26 94.97,4.64 40.17,-21.63 96.15,-64.87 167.97,-129.73 71.82,-64.88 129.35,-128.2 172.6,-189.97 6.17,-7.72 13.13,-9.65 20.85,-5.79 7.72,3.86 11.58,7.33 11.58,10.42 0,23.16 -36.69,73.75 -110.05,151.75 -73.37,78 -129.35,130.9 -167.97,158.69 -72.59,54.06 -139.77,81.09 -201.55,81.09 -58.68,0 -98.07,-29.34 -118.15,-88.03 -4.63,-18.54 -6.94,-39.39 -6.94,-62.55 0,-69.51 14.66,-142.86 44.02,-220.09 -6.17,3.09 -34.76,33.98 -85.72,92.67 -50.97,58.69 -110.05,115.06 -177.24,169.12 -67.18,54.05 -127.8,81.08 -181.85,81.08zm1589.26 -683.42c35.53,0 53.28,18.92 53.28,56.76 0,37.84 -17.76,89.96 -53.28,156.37 -35.53,66.41 -61.79,120.46 -78.78,162.17 -29.34,71.05 -44.02,127.81 -44.02,170.28 0,42.47 6.19,70.66 18.54,84.55 23.16,24.71 54.83,25.87 94.99,3.48 40.15,-22.4 96.15,-65.63 167.96,-129.73 71.82,-64.1 129.35,-127.04 172.6,-188.81 6.17,-7.72 13.51,-9.65 22.01,-5.79 8.49,3.86 12.73,7.72 12.73,11.58 0,3.86 -1.53,8.11 -4.63,12.73 -23.16,41.7 -64.87,94.99 -125.1,159.85 -60.23,64.88 -118.15,117 -173.75,156.39 -55.6,39.37 -110.43,59.08 -164.49,59.08 -52.5,-1.55 -89.58,-13.51 -111.2,-35.91 -21.63,-22.4 -32.43,-50.59 -32.43,-84.57 0,-33.97 3.08,-66.8 9.27,-98.45 6.17,-31.67 17.76,-68.34 34.75,-110.05 27.79,-66.41 52.12,-118.15 72.97,-155.22 20.85,-37.06 31.28,-61.39 31.28,-72.97 0,-11.58 -6.19,-17.37 -18.54,-17.37 -24.71,0 -71.82,30.11 -141.31,90.34 -47.89,44.8 -118.55,129.35 -211.99,253.69 -93.44,124.32 -146.34,190.35 -158.69,198.08 -55.61,27.79 -90.36,41.7 -104.25,41.7 -13.91,0 -20.85,-2.33 -20.85,-6.95 0,-4.63 1.53,-11.2 4.63,-19.69 3.09,-8.5 18.15,-50.59 45.18,-126.27 27.03,-75.68 56.38,-158.69 88.03,-249.05 31.67,-90.34 50.97,-144.79 57.92,-163.33 6.94,-18.52 11.58,-34.36 13.9,-47.49 2.31,-13.13 5.02,-24.33 8.11,-33.58 3.09,-9.27 8.88,-19.7 17.37,-31.28 8.5,-11.58 19.7,-17.76 33.6,-18.54 13.9,-0.77 31.67,0.78 53.28,4.64 21.63,3.86 32.43,13.51 32.43,28.96 0,10.82 -8.49,34.36 -25.48,70.66 -16.99,36.29 -65.65,161.02 -145.96,374.15 55.6,-67.96 125.87,-146.34 210.82,-235.15 84.95,-88.8 156.76,-156.37 215.45,-202.7 58.69,-41.7 106.57,-62.55 143.64,-62.55zm671.85 9.27c118.92,-10.82 191.12,-16.22 216.61,-16.22 25.48,0 38.22,3.86 38.22,11.58 0,9.27 -18.15,18.92 -54.45,28.96 -36.29,10.05 -124.71,22.78 -265.26,38.24 -7.72,13.9 -16.99,30.11 -27.81,48.64 -23.16,37.07 -35.53,59.46 -37.06,67.19 -88.04,176.06 -134.37,288.04 -139.01,335.91 -1.53,13.91 -2.31,31.67 -2.31,53.28 0,21.63 6.17,39.39 18.54,53.28 21.62,24.71 52.52,26.26 92.67,4.64 40.15,-21.63 96.14,-64.87 167.96,-129.73 71.82,-64.88 130.13,-128.2 174.91,-189.97 6.17,-7.72 13.9,-9.27 23.16,-4.64 23.16,10.82 -16.99,71.82 -120.46,183.02 -98.85,106.58 -181.48,172.21 -247.9,196.93 -38.61,13.9 -71.04,20.85 -97.3,20.85 -61.77,0 -102.71,-29.34 -122.78,-88.03 -3.09,-10.82 -4.64,-23.94 -4.64,-39.39 0,-54.05 24.71,-135.92 74.13,-245.57 -7.72,16.99 -37.84,55.6 -90.34,115.84 -13.91,15.44 -24.71,15.44 -32.43,0 -1.55,-3.09 -2.33,-7.34 -2.33,-12.75 0,-5.41 3.09,-11.97 9.27,-19.69 75.68,-94.22 135.14,-173.76 178.39,-238.63 0,-1.55 16.99,-33.98 50.97,-97.3 -15.44,3.09 -31.27,4.63 -47.49,4.63 -16.22,0 -28.19,-5.01 -35.91,-15.06 -7.72,-10.04 -8.49,-22 -2.31,-35.9 10.82,-24.71 51.74,-38.62 122.78,-41.7 1.55,-3.09 4.64,-4.64 9.27,-4.64l115.84 -215.45c6.19,-12.36 13.13,-25.1 20.85,-38.22 7.72,-13.13 13.51,-23.18 17.37,-30.12 3.86,-6.95 8.12,-14.29 12.75,-22.01 4.64,-7.72 8.5,-13.13 11.58,-16.21 3.09,-3.09 6.17,-6.19 9.27,-9.27 6.17,-9.27 24.33,-13.9 54.45,-13.9 30.12,0 50.57,8.49 61.39,25.48 4.63,6.17 6.95,16.61 6.95,31.27 0,14.68 -5.41,30.9 -16.22,48.66 -10.82,17.76 -22.4,30.5 -34.75,38.22 -12.36,7.72 -20.85,16.22 -25.49,25.49l-111.2 194.6 30.12 -2.31zm632.45 393.84c27.81,-57.14 41.7,-101.16 41.7,-132.06 0,-30.89 -3.48,-55.21 -10.42,-72.97 -6.95,-17.76 -3.86,-32.82 9.26,-45.18 13.13,-12.35 29.74,-16.99 49.82,-13.9 30.89,7.72 46.33,42.47 46.33,104.25 0,61.77 -36.29,142.86 -108.88,243.25 1.55,41.7 23.16,62.55 64.87,62.55 41.7,0 105.02,-44.8 189.97,-134.37 40.15,-46.33 65.25,-76.45 75.29,-90.36 10.05,-13.9 18.92,-18.91 26.64,-15.05 7.73,3.86 11.6,7.33 11.6,10.42 0,15.44 -27.81,55.6 -83.4,120.46 -88.04,108.11 -166.04,162.18 -233.99,162.18 -44.8,0 -76.46,-19.3 -94.99,-57.92 -30.9,32.43 -61.02,62.55 -90.36,90.36 -60.24,50.97 -127.42,76.45 -201.55,76.45 -41.7,0 -76.45,-10.04 -104.25,-30.12 -54.05,-32.43 -81.09,-90.34 -81.09,-173.75 0,-91.12 30.9,-183.8 92.67,-278.01 35.53,-55.6 77.23,-104.24 125.1,-145.94 75.68,-66.41 147.5,-99.63 215.45,-99.63 16.99,0 33.21,2.31 48.66,6.95 46.33,15.44 69.51,44.78 69.51,88.03 0,35.53 -9.27,53.28 -27.81,53.28 -7.72,-3.08 -11.58,-14.66 -11.58,-34.75 0,-27.81 -15.44,-41.7 -46.34,-41.7 -54.05,0 -123.56,49.42 -208.5,148.27 -84.95,98.85 -135.92,198.47 -152.91,298.85 -3.08,16.99 -4.63,35.91 -4.63,56.76 0,20.85 6.95,44.8 20.85,71.82 13.9,27.03 39.77,40.54 77.61,40.54 37.84,0 79.15,-16.99 123.94,-50.97 44.78,-33.97 84.95,-77.22 120.46,-129.73l-6.94 -13.9c-6.19,-24.71 -3.09,-44.8 9.26,-60.24 12.36,-15.44 28.59,-20.07 48.66,-13.9z"/>
 </g>
</svg>
