<?xml version="1.0" encoding="UTF-8"?>
<!DOCTYPE svg PUBLIC "-//W3C//DTD SVG 1.1//EN" "http://www.w3.org/Graphics/SVG/1.1/DTD/svg11.dtd">
<!-- Creator: CorelDRAW -->
<svg xmlns="http://www.w3.org/2000/svg" xml:space="preserve" width="143.48mm" height="53.2782mm" version="1.1" style="shape-rendering:geometricPrecision; text-rendering:geometricPrecision; image-rendering:optimizeQuality; fill-rule:evenodd; clip-rule:evenodd"
viewBox="0 0 15583.39 5786.54"
 xmlns:xlink="http://www.w3.org/1999/xlink"
 xmlns:xodm="http://www.corel.com/coreldraw/odm/2003">
 <defs>
  <style type="text/css">
   <![CDATA[
    .fil2 {fill:#FFDE23;fill-rule:nonzero}
    .fil1 {fill:#FDBA2F;fill-rule:nonzero}
    .fil3 {fill:#58BA52;fill-rule:nonzero}
    .fil0 {fill:#197550;fill-rule:nonzero}
   ]]>
  </style>
 </defs>
 <g id="Camada_x0020_1">
  <metadata id="CorelCorpID_0Corel-Layer"/>
  <g id="_105553153782048">
   <path class="fil0" d="M4988.25 3506.41l-144.86 518.83c268.67,23.72 620.4,32.18 945.93,32.18 636.06,0 887.76,-491 830.63,-791.93 -51.87,-273.26 -283.22,-373.85 -632.92,-444.23 -74.6,-15.02 -261.3,-57.82 -253.95,-166.37 17.13,-251.69 714.77,-126.17 987.88,-95.52l132.45 -479.13c0,0 -542.27,-80.03 -819.91,-78.62 -384.79,2 -857.61,149.21 -919.6,637.23 -28.01,220.62 110.85,557.98 585.61,638.14 104.33,17.58 339,31 318.05,154.68 -37.44,220.65 -740.86,121.07 -1029.31,74.75z"/>
   <polygon class="fil0" points="10902.8,4061.22 12285.3,4061.22 12450.32,3677.52 11620.83,3677.52 11660.06,3509.71 12384.15,3509.71 12462.77,3220.96 11738.73,3220.96 11782.49,3052.07 12609.83,3052.07 12728.95,2614.39 11288.61,2614.39 "/>
   <path class="fil0" d="M8884.59 4027.42l131.61 -445.45c-169.31,40.73 -332.19,57.48 -490.82,57.9 -231.15,0.56 -355.45,-95.49 -324.37,-298.86 36.98,-242.11 290.66,-263.91 497.14,-251.39 186.44,11.31 294.5,25.1 433.84,48.66l128.58 -477.98c-240.39,-50.92 -432.5,-79.15 -714.96,-73.49 -282.46,5.64 -560.32,63.42 -738.25,311.31 -137.4,191.5 -222.15,479.6 -168.48,716.88 44.87,198.4 265.53,432.19 559.29,480.21 250.69,40.99 432.19,-22.61 686.41,-67.78z"/>
   <polygon class="fil0" points="6610.86,4066.69 7236.74,4066.69 7620.38,2619.88 7003.09,2619.88 "/>
   <polygon class="fil0" points="14417,4066.69 15042.84,4066.69 15426.53,2619.88 14809.23,2619.88 "/>
   <path class="fil0" d="M13542.49 2619.88l345.06 0c169.36,0 274.38,17.16 315.11,30.03 175.75,57.86 244.33,162.88 244.33,383.65 0,81.46 -10.72,186.48 -40.73,315.1 -51.45,210.05 -115.75,362.24 -173.6,450.13 -100.72,128.58 -205.75,203.6 -334.38,240.04 -105.03,21.46 -210.04,34.3 -302.19,34.3l-53.61 0c-30,-2.15 -60,-6.44 -87.85,-6.44l-880.95 0 385.8 -1446.81 583 0zm0 1037.42c55.72,-8.55 96.48,-25.71 128.58,-62.15 77.21,-81.46 122.19,-227.21 122.19,-351.55 0,-128.58 -51.42,-150 -203.6,-150l-139.31 0 -158.62 570.13 111.46 0c53.57,0 100.74,0 139.31,-6.43z"/>
   <path class="fil0" d="M10113.13 2619.88l499.4 0c227.17,0 338.63,105.01 338.63,325.83 0,345.06 -175.75,555.6 -514.39,555.6l-97.43 0 814.47 1246.85 -476.98 0c0,0 -800.26,-1257.19 -823.86,-1315.09 -23.56,105.06 -168.51,633.62 -168.51,633.62l-613.01 0 385.79 -1446.81 655.88 0zm0 711.62c158.58,-6.44 231.46,-60 231.46,-192.91 0,-75.03 -40.73,-105.03 -141.45,-105.03l-237.9 0 -81.46 297.94 229.35 0z"/>
   <polygon class="fil1" points="6767.76,3915.16 7393.6,3915.16 7777.25,2468.33 7159.99,2468.33 "/>
   <polygon class="fil1" points="14573.86,3915.16 15199.7,3915.16 15583.39,2468.33 14966.1,2468.33 "/>
   <path class="fil1" d="M9028.09 3889.03l131.65 -445.42c-169.31,40.7 -332.23,57.48 -490.85,57.86 -231.15,0.58 -355.45,-95.44 -324.37,-298.82 37.01,-242.11 290.65,-263.95 497.14,-251.42 186.44,11.31 294.48,25.1 433.84,48.7l128.58 -478.02c-240.39,-50.88 -432.46,-79.12 -714.96,-73.49 -282.46,5.67 -560.33,63.45 -738.22,311.34 -137.43,191.47 -222.15,479.6 -168.51,716.88 44.87,198.37 265.52,432.16 559.29,480.21 250.69,40.96 432.19,-22.61 686.41,-67.82z"/>
   <polygon class="fil1" points="11043.74,3915.16 12426.22,3915.16 12591.24,3531.46 11761.76,3531.46 11801.03,3363.65 12525.11,3363.65 12603.73,3074.9 11879.65,3074.9 11923.44,2906.05 12750.79,2906.05 12869.87,2468.33 11429.56,2468.33 "/>
   <path class="fil1" d="M13699.36 2468.33l345.11 0c169.31,0 274.33,17.17 315.07,30 175.74,57.9 244.33,162.93 244.33,383.7 0,81.46 -10.73,186.47 -40.73,315.07 -51.42,210.07 -115.75,362.22 -173.6,450.12 -100.74,128.58 -205.75,203.64 -334.38,240.08 -105.03,21.42 -210.04,34.29 -302.2,34.29l-53.6 0c-30,-2.14 -60.01,-6.43 -87.85,-6.43l-880.95 0 385.84 -1446.82 582.96 0zm0 1037.42c55.71,-8.58 96.48,-25.71 128.63,-62.15 77.17,-81.46 122.14,-227.2 122.14,-351.54 0,-128.58 -51.42,-150.04 -203.6,-150.04l-139.31 0 -158.62 570.17 111.46 0c53.6,0 100.72,0 139.31,-6.44z"/>
   <path class="fil1" d="M10270 2468.33l499.4 0c227.2,0 338.62,105.03 338.62,325.8 0,345.11 -175.71,555.65 -514.38,555.65l-97.43 0 814.47 1246.81 -563.92 0c0,0 -735.89,-1159.91 -759.44,-1217.77 -23.57,105.01 -145.98,536.34 -145.98,536.34l-613.01 0 385.79 -1446.82 655.88 0zm0 711.63c158.58,-6.44 231.46,-60.04 231.46,-192.92 0,-75.02 -40.7,-105.01 -141.42,-105.01l-237.94 0 -81.46 297.94 229.36 0z"/>
   <polygon class="fil2" points="0.38,4268.65 4761.04,4268.68 4629.58,4746.98 0.38,4746.98 "/>
   <polygon class="fil0" points="2227.22,1916.29 1977.56,1952.96 1513.87,108.01 1513.87,102.07 2224.28,0 "/>
   <polygon class="fil0" points="3637.06,980.94 2725.59,2211.59 2531.37,2012.42 3101.07,355.72 "/>
   <polygon class="fil0" points="1719.97,2179.87 1556.48,2448.37 235.84,1535.82 699.48,731.24 "/>
   <polygon class="fil0" points="4061.1,2005.49 4143.33,2882.37 2883.1,2876.44 2868.24,2560.37 "/>
   <path class="fil0" d="M1503.99 2907.16c19.81,107.01 20.81,213.03 37.62,322.99l-1392.99 703.51 -148.62 -1061.18 1503.99 34.68z"/>
   <polygon class="fil0" points="3965.01,4052.55 3603.38,4810.58 2704.79,3554.18 2829.61,3318.36 "/>
   <polygon class="fil0" points="1916.14,3775.12 1303.83,5571.51 1290.96,5571.51 702.47,5052.35 1736.79,3615.6 "/>
   <polygon class="fil0" points="2885.09,5550.71 2872.18,5563.63 2237.15,5786.54 2234.16,3886.12 2447.19,3813.77 "/>
   <polygon class="fil3" points="2461.06,1916.29 2211.36,1952.96 1747.71,108.01 1747.71,102.07 2458.07,0 "/>
   <polygon class="fil3" points="3870.87,980.94 2959.39,2211.59 2765.21,2012.42 3334.88,355.72 "/>
   <polygon class="fil3" points="1953.77,2179.87 1790.31,2448.37 469.63,1535.82 933.32,731.24 "/>
   <polygon class="fil3" points="4294.93,2005.49 4377.16,2882.37 3116.9,2876.44 3102.07,2560.37 "/>
   <path class="fil3" d="M1737.78 2907.16c19.81,107.01 20.81,213.03 37.67,322.99l-1393.02 703.51 -6.94 -11.88 -141.65 -1049.3 1503.94 34.68z"/>
   <polygon class="fil3" points="4198.8,4052.55 3837.19,4810.58 2938.58,3554.18 3063.42,3318.36 "/>
   <polygon class="fil3" points="2149.94,3775.12 1537.67,5571.51 1524.8,5571.51 936.27,5052.35 1970.63,3615.6 "/>
   <polygon class="fil3" points="3118.9,5550.71 3106.01,5563.63 2470.94,5786.54 2467.95,3886.12 2680.99,3813.77 "/>
   <polygon class="fil0" points="324.53,4571.49 426.11,4272.67 545.42,4615.9 446.8,4617.85 446.8,4746.98 398.44,4747.48 398.48,4615.9 236.75,4615.9 237.14,4746.98 189.77,4747.48 189.43,4616.9 104.48,4617.01 208.17,4268.73 "/>
   <polygon class="fil2" points="4857.9,4268.73 10237.58,4273.06 10527.71,4748.66 4722.96,4747.59 "/>
   <path class="fil1" d="M5123.89 3388.17l-144.87 518.82c268.67,23.72 620.4,32.19 945.93,32.19 636.07,0 887.77,-491.01 830.64,-791.98 -51.88,-273.26 -283.23,-373.84 -632.94,-444.23 -74.59,-15.02 -261.3,-57.78 -253.95,-166.33 17.13,-251.69 714.77,-126.17 987.93,-95.52l132.42 -479.12c0,0 -542.28,-80.08 -819.91,-78.62 -384.8,1.99 -857.57,149.15 -919.61,637.21 -28,220.62 110.85,557.95 585.61,638.1 104.33,17.62 339.01,31.03 318.05,154.71 -37.44,220.65 -740.86,121.08 -1029.3,74.76z"/>
  </g>
 </g>
</svg>
